<svg xmlns="http://www.w3.org/2000/svg" viewBox="0 0 58.7 19.88"><defs><style>.cls-1{fill:#ec641a;}.cls-2{fill:none;stroke:#ec641a;stroke-miterlimit:10;}</style></defs><g id="Camada_2" data-name="Camada 2"><g id="Camada_1-2" data-name="Camada 1"><path class="cls-1" d="M1.5,2.53H3.2V15H1.5Zm.74,5.52H6.38a1.53,1.53,0,0,0,1.43-.92,2.31,2.31,0,0,0,.21-1,2.31,2.31,0,0,0-.21-1,1.54,1.54,0,0,0-.57-.68,1.57,1.57,0,0,0-.86-.24H2.24V2.53H6.31A3.76,3.76,0,0,1,8.15,3,3.07,3.07,0,0,1,9.39,4.23a4,4,0,0,1,.44,1.89A3.82,3.82,0,0,1,9.38,8,3,3,0,0,1,8.15,9.26a3.69,3.69,0,0,1-1.84.45H2.24Zm3.3,1.27,1.69-.39,3.1,6h-2Z" transform="translate(-1.5 -1.16)"/><path class="cls-1" d="M13.52,14.64a2.9,2.9,0,0,1-1.22-1.32,4.78,4.78,0,0,1-.42-2.09V9.78a4.64,4.64,0,0,1,.42-2.06,2.92,2.92,0,0,1,1.22-1.31A3.84,3.84,0,0,1,15.44,6a3.91,3.91,0,0,1,1.93.45,3,3,0,0,1,1.22,1.31A4.64,4.64,0,0,1,19,9.78v1.47a4.73,4.73,0,0,1-.42,2.08,3,3,0,0,1-1.22,1.31,3.91,3.91,0,0,1-1.93.45A3.84,3.84,0,0,1,13.52,14.64Zm3.3-1.78a2.38,2.38,0,0,0,.49-1.61V9.78a2.33,2.33,0,0,0-.49-1.59,1.7,1.7,0,0,0-1.38-.57,1.73,1.73,0,0,0-1.38.57,2.38,2.38,0,0,0-.48,1.59v1.47a2.44,2.44,0,0,0,.48,1.61,1.73,1.73,0,0,0,1.38.57A1.7,1.7,0,0,0,16.82,12.86Z" transform="translate(-1.5 -1.16)"/><path class="cls-1" d="M22.92,11.49a2.06,2.06,0,0,0,.46,1.44,1.69,1.69,0,0,0,1.3.5A1.79,1.79,0,0,0,26,13a1.75,1.75,0,0,0,.45-1.29l.12,1.85a2.6,2.6,0,0,1-.87,1.11,2.44,2.44,0,0,1-1.47.44A2.69,2.69,0,0,1,22,14.15a4.07,4.07,0,0,1-.78-2.66V6.09h1.7Zm3.51-5.4h1.7V15h-1.7Z" transform="translate(-1.5 -1.16)"/><path class="cls-1" d="M30,6.09h3.9V7.67H30Zm1.38,8.32a2.73,2.73,0,0,1-.48-1.75V3.51h1.69v9.16a.85.85,0,0,0,.13.5.42.42,0,0,0,.37.18h.81V15H33A1.88,1.88,0,0,1,31.42,14.41Z" transform="translate(-1.5 -1.16)"/><path class="cls-1" d="M36.28,2.54H38V4.28h-1.7Zm0,3.55H38V15h-1.7Z" transform="translate(-1.5 -1.16)"/><path class="cls-1" d="M40.56,6.09h1.7V15h-1.7Zm5.25,3.5a2.07,2.07,0,0,0-.47-1.45,2,2,0,0,0-2.63-.06,1.71,1.71,0,0,0-.45,1.27l-.17-1.71a3.05,3.05,0,0,1,1-1.24A2.51,2.51,0,0,1,44.56,6a2.65,2.65,0,0,1,2.18,1,4.14,4.14,0,0,1,.77,2.67V15h-1.7Z" transform="translate(-1.5 -1.16)"/><path class="cls-1" d="M51.59,14.63a3.08,3.08,0,0,1-1.3-1.35,4.78,4.78,0,0,1-.45-2.16v-1a5.44,5.44,0,0,1,.43-2.25,3.16,3.16,0,0,1,1.25-1.42,3.81,3.81,0,0,1,2-.49,3.08,3.08,0,0,1,1.85.56,3.47,3.47,0,0,1,1.17,1.61,7,7,0,0,1,.4,2.52v.58H51.08V9.83h4.21a3.05,3.05,0,0,0-.54-1.69,1.54,1.54,0,0,0-1.26-.6,1.8,1.8,0,0,0-1.5.65A2.83,2.83,0,0,0,51.46,10v1.13A2.32,2.32,0,0,0,52,12.84a2.1,2.1,0,0,0,1.61.59,2.66,2.66,0,0,0,1-.21,2.88,2.88,0,0,0,.91-.6l1.12,1.15a4.88,4.88,0,0,1-1.45,1,4,4,0,0,1-1.6.34A4.2,4.2,0,0,1,51.59,14.63Z" transform="translate(-1.5 -1.16)"/><path class="cls-2" d="M42.15,7.44a9.08,9.08,0,0,1,17,6.41" transform="translate(-1.5 -1.16)"/><path class="cls-2" d="M43.15,5.5a9.1,9.1,0,1,1,2.16,12.69" transform="translate(-1.5 -1.16)"/><polyline class="cls-2" points="45.31 19.59 43.3 16.9 46.88 17.03"/></g></g></svg>